<svg width="122" height="18" viewBox="0 0 122 18" fill="none" xmlns="http://www.w3.org/2000/svg">
<path d="M0 17.754H3.33669V12.9813L4.97806 10.8492L9.30111 17.754H13.2928L7.36691 8.47927L13.2234 0.959454H9.22405L3.54475 8.36446H3.33669V0.959454H0V17.754Z" fill="#FF577F"/>
<path d="M19.8588 18C22.7871 18 24.7598 16.4829 25.2222 14.1458L22.186 13.9326C21.8547 14.892 21.007 15.3923 19.9128 15.3923C18.2714 15.3923 17.2311 14.236 17.2311 12.3581V12.3499H25.2915V11.3904C25.2915 7.1098 22.8564 4.99408 19.7278 4.99408C16.2447 4.99408 13.9869 7.62642 13.9869 11.5134C13.9869 15.5071 16.2139 18 19.8588 18ZM17.2311 10.185C17.3004 8.74989 18.3253 7.60182 19.7818 7.60182C21.2074 7.60182 22.1937 8.68428 22.2014 10.185H17.2311Z" fill="#FF577F"/>
<path d="M31.1505 10.472C31.1582 8.84829 32.0675 7.89704 33.393 7.89704C34.7107 7.89704 35.5044 8.81549 35.4967 10.3572V17.754H38.7794V9.73394C38.7794 6.79818 37.1612 4.99408 34.6953 4.99408C32.9383 4.99408 31.6668 5.91253 31.1351 7.38041H30.9964V5.15809H27.8678V17.754H31.1505V10.472Z" fill="#FF577F"/>
<path d="M41.7391 17.754H51.6875V14.9658H46.0467V14.8756L51.4871 7.42961V5.15809H41.9394V7.94624H47.534V8.03645L41.7391 15.6711V17.754Z" fill="#FF577F"/>
<path d="M54.6317 17.754H57.9145V5.15809H54.6317V17.754ZM56.2808 3.5344C57.2594 3.5344 58.0609 2.73895 58.0609 1.7631C58.0609 0.795445 57.2594 0 56.2808 0C55.3098 0 54.5084 0.795445 54.5084 1.7631C54.5084 2.73895 55.3098 3.5344 56.2808 3.5344Z" fill="#FF577F"/>
<path d="M66.3723 18C69.3006 18 71.2733 16.4829 71.7356 14.1458L68.6995 13.9326C68.3681 14.892 67.5205 15.3923 66.4262 15.3923C64.7849 15.3923 63.7446 14.236 63.7446 12.3581V12.3499H71.805V11.3904C71.805 7.1098 69.3699 4.99408 66.2413 4.99408C62.7582 4.99408 60.5003 7.62642 60.5003 11.5134C60.5003 15.5071 62.7274 18 66.3723 18ZM63.7446 10.185C63.8139 8.74989 64.8388 7.60182 66.2952 7.60182C67.7208 7.60182 68.7072 8.68428 68.7149 10.185H63.7446Z" fill="#FF577F"/>
<path d="M79.8993 17.754H83.236V10.8164H90.0095V17.754H93.3385V0.959454H90.0095V7.88884H83.236V0.959454H79.8993V17.754Z" fill="#FF577F"/>
<path d="M104.052 12.3909C104.06 14.0802 102.973 14.9658 101.794 14.9658C100.554 14.9658 99.7523 14.0392 99.7446 12.5549V5.15809H96.4619V13.1781C96.4696 16.1221 98.0878 17.918 100.469 17.918C102.249 17.918 103.528 16.9421 104.06 15.4661H104.183V17.754H107.335V5.15809H104.052V12.3909Z" fill="#FF577F"/>
<path d="M110.456 17.754H113.693V15.7367H113.839C114.294 16.7863 115.288 17.959 117.199 17.959C119.896 17.959 122 15.6875 122 11.4724C122 7.1426 119.804 4.99408 117.207 4.99408C115.226 4.99408 114.279 6.24875 113.839 7.2738H113.739V0.959454H110.456V17.754ZM113.67 11.456C113.67 9.20911 114.564 7.77403 116.159 7.77403C117.785 7.77403 118.648 9.27472 118.648 11.456C118.648 13.6538 117.769 15.179 116.159 15.179C114.579 15.179 113.67 13.703 113.67 11.456Z" fill="#FF577F"/>
</svg>
